<?xml version="1.0" encoding="UTF-8" standalone="no"?>
<!-- Created with Inkscape (http://www.inkscape.org/) -->

<svg
   xmlns:dc="http://purl.org/dc/elements/1.1/"
   xmlns:cc="http://creativecommons.org/ns#"
   xmlns:rdf="http://www.w3.org/1999/02/22-rdf-syntax-ns#"
   xmlns:svg="http://www.w3.org/2000/svg"
   xmlns="http://www.w3.org/2000/svg"
   xmlns:sodipodi="http://sodipodi.sourceforge.net/DTD/sodipodi-0.dtd"
   xmlns:inkscape="http://www.inkscape.org/namespaces/inkscape"
   width="99.513962mm"
   height="114.95829mm"
   viewBox="0 0 99.513962 114.95829"
   version="1.1"
   id="svg8"
   inkscape:version="0.92.5 (2060ec1f9f, 2020-04-08)"
   sodipodi:docname="chefbook_logo-white.svg">
  <defs
     id="defs2" />
  <sodipodi:namedview
     id="base"
     pagecolor="#ffffff"
     bordercolor="#666666"
     borderopacity="1.0"
     inkscape:pageopacity="0.0"
     inkscape:pageshadow="2"
     inkscape:zoom="0.5157197"
     inkscape:cx="236.97445"
     inkscape:cy="238.65456"
     inkscape:document-units="mm"
     inkscape:current-layer="layer1"
     showgrid="false"
     inkscape:window-width="1920"
     inkscape:window-height="972"
     inkscape:window-x="0"
     inkscape:window-y="27"
     inkscape:window-maximized="1"
     inkscape:snap-to-guides="false"
     inkscape:snap-grids="false"
     inkscape:snap-others="false"
     inkscape:snap-nodes="false"
     inkscape:snap-global="false"
     inkscape:pagecheckerboard="true"
     inkscape:showpageshadow="false" />
  <metadata
     id="metadata5">
    <rdf:RDF>
      <cc:Work
         rdf:about="">
        <dc:format>image/svg+xml</dc:format>
        <dc:type
           rdf:resource="http://purl.org/dc/dcmitype/StillImage" />
        <dc:title></dc:title>
      </cc:Work>
    </rdf:RDF>
  </metadata>
  <g
     inkscape:label="Layer 1"
     inkscape:groupmode="layer"
     id="layer1"
     transform="translate(-54.431321,-69.428459)">
    <g
       id="g4565"
       style="fill:#ffffff;fill-opacity:1">
      <path
         inkscape:connector-curvature="0"
         id="path4531"
         d="M 74.186874,174.02029 Z"
         style="fill:#ffffff;stroke:#000000;stroke-width:0.26458332px;stroke-linecap:butt;stroke-linejoin:miter;stroke-opacity:1;fill-opacity:1" />
      <path
         sodipodi:nodetypes="csscscsccsccccsc"
         inkscape:connector-curvature="0"
         id="path4533"
         d="m 84.163104,175.65276 c 5.378382,-1.592 6.616742,-3.73653 9.341378,-6.34851 3.974467,-3.81012 8.573668,-2.34269 9.432068,-1.2697 1.08832,1.3604 1.3604,2.5394 1.3604,2.5394 0,0 -0.0235,-0.73477 1.90455,-2.35801 1.59724,-1.3447 6.07644,-1.99526 8.16238,0.18138 2.81148,2.17663 5.8605,8.60968 13.05978,7.98098 2.96189,-0.25866 6.52991,-3.44634 6.52991,-3.44634 0,0 -3.53703,6.71128 -6.07644,8.79723 -2.99287,2.72078 -12.51563,3.89979 -16.8689,0.63484 -4.35326,-3.26494 -6.80197,-6.80197 -6.80197,-6.80197 0,0 -1.17901,3.26494 -3.17426,5.35089 -2.902174,3.17425 -11.064544,4.71603 -17.59444,2.26732 -4.897421,-1.99525 -9.250688,-9.15999 -9.250688,-9.15999 0,0 3.955634,3.41457 9.976232,1.63247 z"
         style="fill:#ffffff;fill-opacity:1;stroke:none;stroke-width:0.26458332px;stroke-linecap:butt;stroke-linejoin:miter;stroke-opacity:1" />
      <path
         sodipodi:nodetypes="ccccccccccc"
         inkscape:connector-curvature="0"
         id="path4554"
         d="m 77.542516,159.32802 c 1.904553,-17.41306 0,-43.89541 0,-43.89541 0,0 3.809106,5.62297 5.350887,37.45621 0,0 16.143359,-12.51564 19.408307,-1.08832 l 1.72316,-36.00512 0.45347,35.91443 c 3.71841,-11.88078 20.85939,1.08831 20.85939,1.08831 1.08832,-22.94533 5.53227,-37.5469 5.53227,-37.5469 0,0 -2.17663,31.47047 0.63485,44.71165 0,0 -17.14098,-3.62771 -27.66136,-3.35564 -10.520393,-0.72554 -26.300974,2.72079 -26.300974,2.72079 z"
         style="fill:#ffffff;fill-opacity:1;stroke:none;stroke-width:0.26458332px;stroke-linecap:butt;stroke-linejoin:miter;stroke-opacity:1" />
      <path
         sodipodi:nodetypes="cscsc"
         inkscape:connector-curvature="0"
         id="path4556"
         d="m 80.988849,112.43974 c 0,0 8.874108,-5.97992 23.217411,-5.89504 15.32712,0.0907 23.21741,5.98573 23.21741,5.98573 0,0 -11.60531,-1.77573 -23.3988,-1.90455 -11.881458,-0.12978 -23.036021,1.81386 -23.036021,1.81386 z"
         style="fill:#ffffff;fill-opacity:1;stroke:none;stroke-width:0.26458332px;stroke-linecap:butt;stroke-linejoin:miter;stroke-opacity:1" />
      <path
         sodipodi:nodetypes="cscscssccssscsscscccssscscsssc"
         inkscape:connector-curvature="0"
         id="path4558"
         d="m 73.642718,111.98628 c 0,0 -13.966724,-0.72555 -18.138603,-10.61109 -4.171875,-9.885532 5.169502,-16.052657 5.169502,-16.052657 0,0 4.352833,-3.615651 11.79009,-3.355641 6.80741,0.23799 9.250686,2.267325 9.250686,2.267325 0,0 1.541782,-5.078808 5.804351,-8.978608 4.262573,-3.899799 9.976231,-6.076431 16.506126,-5.80435 10.4305,0.434608 15.14573,4.171876 17.68513,7.074053 2.53941,2.902175 4.71604,7.708905 4.71604,7.708905 0,0 3.44553,-2.210985 10.4297,-2.358019 8.61583,-0.181384 14.69226,5.169503 16.50612,9.976231 1.81386,4.80673 -0.89655,12.281381 -4.08118,14.873651 -3.80238,3.0951 -12.42495,5.1695 -12.42495,5.1695 3.56833,-2.08153 4.96209,-3.05488 8.07168,-6.71128 3.01088,-3.54032 3.71841,-10.066923 -3.08356,-14.873651 -6.39973,-4.522486 -14.51087,-0.997623 -14.51087,-0.997623 0,0 -0.45347,3.809105 -1.90456,6.439203 -1.45109,2.630096 -5.1695,5.622961 -5.1695,5.622961 0,0 1.17901,-3.44633 1.2697,-7.346129 0.0907,-3.8998 -0.63486,-8.343755 -4.35326,-11.245932 -3.71842,-2.902175 -7.44291,-3.980369 -12.78772,-4.353263 -3.89979,-0.272079 -9.79484,1.360393 -12.969095,4.53465 -4.006947,4.006949 -5.260196,6.529896 -5.078808,9.70415 0.181385,3.174256 1.451086,8.253064 1.451086,8.253064 0,0 -2.811481,-1.904554 -4.171876,-5.169502 -1.360395,-3.264947 -3.174256,-7.164747 -3.174256,-7.164747 0,0 -5.804351,-1.360395 -9.341379,-0.544158 -5.384074,1.242478 -8.803085,3.523194 -9.885537,9.341379 -0.725543,3.899798 2.29246,8.461878 4.897421,10.248308 2.447035,1.67813 7.527522,4.35327 7.527522,4.35327 z"
         style="fill:#ffffff;fill-opacity:1;stroke:none;stroke-width:0.26458332px;stroke-linecap:butt;stroke-linejoin:miter;stroke-opacity:1" />
    </g>
  </g>
</svg>
